<?xml version="1.0" standalone="no"?>
<!DOCTYPE svg PUBLIC "-//W3C//DTD SVG 20010904//EN"
 "http://www.w3.org/TR/2001/REC-SVG-20010904/DTD/svg10.dtd">
<svg version="1.0" xmlns="http://www.w3.org/2000/svg"
 width="30.000000pt" height="30.000000pt" viewBox="0 0 30.000000 30.000000"
 preserveAspectRatio="xMidYMid meet">
<metadata>
Created by potrace 1.10, written by Peter Selinger 2001-2011
</metadata>
<g transform="translate(0.000000,30.000000) scale(0.100000,-0.100000)"
fill="#000000" stroke="none">
<path d="M115 240 c-16 -17 -19 -18 -40 -4 -16 10 -25 12 -30 5 -3 -6 1 -11 9
-11 16 0 20 -11 31 -85 12 -78 8 -75 98 -73 l82 2 -77 3 c-57 3 -78 8 -78 17
0 9 22 16 70 20 74 8 90 19 90 68 0 23 -62 83 -74 71 -10 -10 -7 -25 3 -18 5
3 13 0 16 -6 14 -22 -3 -19 -33 6 -36 30 -44 31 -67 5z m135 -69 c0 -32 -13
-38 -97 -43 -49 -3 -48 -3 -56 40 l-6 32 79 0 80 0 0 -29z"/>
<path d="M122 48 c-17 -17 -15 -35 4 -42 17 -6 44 9 44 25 0 16 -36 29 -48 17z"/>
<path d="M214 45 c-17 -12 -18 -15 -3 -30 17 -17 49 -11 49 10 0 24 -25 36
-46 20z"/>
</g>
</svg>
